<mxfile host="app.diagrams.net" modified="2024-05-22T18:50:21.675Z" agent="Mozilla/5.0 (Windows NT 10.0; Win64; x64) AppleWebKit/537.36 (KHTML, like Gecko) Chrome/124.0.0.0 Safari/537.36" version="24.4.6" etag="6RWHq3TG7yrj6p1zg9Hf" type="github">
  <diagram name="Page-1" id="sd8vXQt9kqlDhh4fNliq">
    <mxGraphModel>
      <root>
        <mxCell id="0" />
        <mxCell id="1" parent="0" />
      </root>
    </mxGraphModel>
  </diagram>
</mxfile>
